<?xml version="1.0" encoding="UTF-8" standalone="no"?>
<!DOCTYPE svg PUBLIC "-//W3C//DTD SVG 1.1//EN"
 "http://www.w3.org/Graphics/SVG/1.1/DTD/svg11.dtd">
<!-- Generated by graphviz version 2.26.3 (20100126.1600)
 -->
<!-- Title: G Pages: 1 -->
<svg width="592pt" height="692pt"
 viewBox="0.00 0.00 592.00 692.00" xmlns="http://www.w3.org/2000/svg" xmlns:xlink="http://www.w3.org/1999/xlink">
<g id="graph1" class="graph" transform="scale(1 1) rotate(0) translate(4 688)">
<title>G</title>
<polygon fill="white" stroke="white" points="-4,5 -4,-688 589,-688 589,5 -4,5"/>
<g id="graph2" class="cluster"><title>cluster_global</title>
<polyline fill="none" stroke="gray" points="20,-8 564,-8 "/>
<path fill="none" stroke="gray" d="M564,-8C570,-8 576,-14 576,-20"/>
<polyline fill="none" stroke="gray" points="576,-20 576,-664 "/>
<path fill="none" stroke="gray" d="M576,-664C576,-670 570,-676 564,-676"/>
<polyline fill="none" stroke="gray" points="564,-676 20,-676 "/>
<path fill="none" stroke="gray" d="M20,-676C14,-676 8,-670 8,-664"/>
<polyline fill="none" stroke="gray" points="8,-664 8,-20 "/>
<path fill="none" stroke="gray" d="M8,-20C8,-14 14,-8 20,-8"/>
<text text-anchor="middle" x="292" y="-662.1" font-family="Times Roman,serif" font-size="11.00" fill="gray">global</text>
</g>
<!-- \\Application -->
<g id="node2" class="node"><title>\\Application</title>
<a xlink:href="Application.html" xlink:title="Application" target="_parent">
<polygon fill="none" stroke="black" points="561,-646 471,-646 471,-610 561,-610 561,-646"/>
<text text-anchor="middle" x="516" y="-625.1" font-family="Courier,monospace" font-size="11.00">Application</text>
</a>
</g>
<!-- \\Configuration -->
<g id="node10" class="node"><title>\\Configuration</title>
<a xlink:href="Configuration.html" xlink:title="Configuration" target="_parent">
<polygon fill="none" stroke="black" points="365,-646 261,-646 261,-610 365,-610 365,-646"/>
<text text-anchor="middle" x="313" y="-625.1" font-family="Courier,monospace" font-size="11.00">Configuration</text>
</a>
</g>
<!-- \\Application&#45;&gt;\\Configuration -->
<g id="edge3" class="edge"><title>\\Application&#45;&gt;\\Configuration</title>
<path fill="none" stroke="black" d="M470.443,-628C442.401,-628 406.075,-628 375.383,-628"/>
<polygon fill="none" stroke="black" points="375.211,-624.5 365.211,-628 375.211,-631.5 375.211,-624.5"/>
</g>
<!-- \\Model -->
<g id="node3" class="node"><title>\\Model</title>
<a xlink:href="Model.html" xlink:title="Model" target="_parent">
<polygon fill="none" stroke="black" points="543,-592 489,-592 489,-556 543,-556 543,-592"/>
<text text-anchor="middle" x="516" y="-571.1" font-family="Courier,monospace" font-size="11.00">Model</text>
</a>
</g>
<!-- \\ModelSQLManager -->
<g id="node20" class="node"><title>\\ModelSQLManager</title>
<a xlink:href="ModelSQLManager.html" xlink:title="ModelSQLManager" target="_parent">
<polygon fill="none" stroke="black" points="372,-592 254,-592 254,-556 372,-556 372,-592"/>
<text text-anchor="middle" x="313" y="-571.1" font-family="Courier,monospace" font-size="11.00">ModelSQLManager</text>
</a>
</g>
<!-- \\Model&#45;&gt;\\ModelSQLManager -->
<g id="edge5" class="edge"><title>\\Model&#45;&gt;\\ModelSQLManager</title>
<path fill="none" stroke="black" d="M488.623,-574C461.518,-574 418.907,-574 382.446,-574"/>
<polygon fill="none" stroke="black" points="382.343,-570.5 372.343,-574 382.343,-577.5 382.343,-570.5"/>
</g>
<!-- \\ApplicationDB -->
<g id="node4" class="node"><title>\\ApplicationDB</title>
<a xlink:href="ApplicationDB.html" xlink:title="ApplicationDB" target="_parent">
<polygon fill="none" stroke="black" points="141,-565 37,-565 37,-529 141,-529 141,-565"/>
<text text-anchor="middle" x="89" y="-544.1" font-family="Courier,monospace" font-size="11.00">ApplicationDB</text>
</a>
</g>
<!-- \\Calendar -->
<g id="node5" class="node"><title>\\Calendar</title>
<a xlink:href="Calendar.html" xlink:title="Calendar" target="_parent">
<polygon fill="none" stroke="black" points="551,-538 481,-538 481,-502 551,-502 551,-538"/>
<text text-anchor="middle" x="516" y="-517.1" font-family="Courier,monospace" font-size="11.00">Calendar</text>
</a>
</g>
<!-- \\HTMLManager -->
<g id="node6" class="node"><title>\\HTMLManager</title>
<a xlink:href="HTMLManager.html" xlink:title="HTMLManager" target="_parent">
<polygon fill="none" stroke="black" points="561,-484 471,-484 471,-448 561,-448 561,-484"/>
<text text-anchor="middle" x="516" y="-463.1" font-family="Courier,monospace" font-size="11.00">HTMLManager</text>
</a>
</g>
<!-- \\HTMLInterface -->
<g id="node13" class="node"><title>\\HTMLInterface</title>
<a xlink:href="interfaces.HTMLInterface.html" xlink:title="HTMLInterface" target="_parent">
<polygon fill="none" stroke="black" points="365,-484 261,-484 261,-448 365,-448 365,-484"/>
<text text-anchor="middle" x="313" y="-463.1" font-family="Courier,monospace" font-size="11.00">HTMLInterface</text>
</a>
</g>
<!-- \\HTMLManager&#45;&gt;\\HTMLInterface -->
<g id="edge11" class="edge"><title>\\HTMLManager&#45;&gt;\\HTMLInterface</title>
<path fill="none" stroke="black" stroke-dasharray="1,5" d="M470.443,-466C442.401,-466 406.075,-466 375.383,-466"/>
<polygon fill="none" stroke="black" points="375.211,-462.5 365.211,-466 375.211,-469.5 375.211,-462.5"/>
</g>
<!-- \\PluginManager -->
<g id="node7" class="node"><title>\\PluginManager</title>
<a xlink:href="Plugin.html" xlink:title="PluginManager" target="_parent">
<polygon fill="none" stroke="black" points="568,-430 464,-430 464,-394 568,-394 568,-430"/>
<text text-anchor="middle" x="516" y="-409.1" font-family="Courier,monospace" font-size="11.00">PluginManager</text>
</a>
</g>
<!-- \\PluginManagerIterface -->
<g id="node12" class="node"><title>\\PluginManagerIterface</title>
<a xlink:href="interfaces.PluginManagerIterface.html" xlink:title="PluginManagerIterface" target="_parent">
<polygon fill="none" stroke="black" points="392,-430 234,-430 234,-394 392,-394 392,-430"/>
<text text-anchor="middle" x="313" y="-409.1" font-family="Courier,monospace" font-size="11.00">PluginManagerIterface</text>
</a>
</g>
<!-- \\PluginManager&#45;&gt;\\PluginManagerIterface -->
<g id="edge13" class="edge"><title>\\PluginManager&#45;&gt;\\PluginManagerIterface</title>
<path fill="none" stroke="black" stroke-dasharray="1,5" d="M463.986,-412C445.209,-412 423.44,-412 402.377,-412"/>
<polygon fill="none" stroke="black" points="402.111,-408.5 392.111,-412 402.111,-415.5 402.111,-408.5"/>
</g>
<!-- \\ValueCheck -->
<g id="node8" class="node"><title>\\ValueCheck</title>
<a xlink:href="ValueCheck.html" xlink:title="ValueCheck" target="_parent">
<polygon fill="none" stroke="black" points="558,-376 474,-376 474,-340 558,-340 558,-376"/>
<text text-anchor="middle" x="516" y="-355.1" font-family="Courier,monospace" font-size="11.00">ValueCheck</text>
</a>
</g>
<!-- \\Controller -->
<g id="node9" class="node"><title>\\Controller</title>
<a xlink:href="Controller.html" xlink:title="Controller" target="_parent">
<polygon fill="none" stroke="black" points="355,-106 271,-106 271,-70 355,-70 355,-106"/>
<text text-anchor="middle" x="313" y="-85.1" font-family="Courier,monospace" font-size="11.00">Controller</text>
</a>
</g>
<!-- \\FileManager -->
<g id="node11" class="node"><title>\\FileManager</title>
<a xlink:href="FileManager.html" xlink:title="FileManager" target="_parent">
<polygon fill="none" stroke="black" points="561,-322 471,-322 471,-286 561,-286 561,-322"/>
<text text-anchor="middle" x="516" y="-301.1" font-family="Courier,monospace" font-size="11.00">FileManager</text>
</a>
</g>
<!-- \\FileInterface -->
<g id="node16" class="node"><title>\\FileInterface</title>
<a xlink:href="interfaces.FileInterface.html" xlink:title="FileInterface" target="_parent">
<polygon fill="none" stroke="black" points="365,-322 261,-322 261,-286 365,-286 365,-322"/>
<text text-anchor="middle" x="313" y="-301.1" font-family="Courier,monospace" font-size="11.00">FileInterface</text>
</a>
</g>
<!-- \\FileManager&#45;&gt;\\FileInterface -->
<g id="edge15" class="edge"><title>\\FileManager&#45;&gt;\\FileInterface</title>
<path fill="none" stroke="black" stroke-dasharray="1,5" d="M470.443,-304C442.401,-304 406.075,-304 375.383,-304"/>
<polygon fill="none" stroke="black" points="375.211,-300.5 365.211,-304 375.211,-307.5 375.211,-300.5"/>
</g>
<!-- \\SQLManagerInterface -->
<g id="node14" class="node"><title>\\SQLManagerInterface</title>
<a xlink:href="interfaces.SQLManagerInterface.html" xlink:title="SQLManagerInterface" target="_parent">
<polygon fill="none" stroke="black" points="161,-619 17,-619 17,-583 161,-583 161,-619"/>
<text text-anchor="middle" x="89" y="-598.1" font-family="Courier,monospace" font-size="11.00">SQLManagerInterface</text>
</a>
</g>
<!-- \\LoaderInterface -->
<g id="node15" class="node"><title>\\LoaderInterface</title>
<a xlink:href="interfaces.LoaderInterface.html" xlink:title="LoaderInterface" target="_parent">
<polygon fill="none" stroke="black" points="372,-214 254,-214 254,-178 372,-178 372,-214"/>
<text text-anchor="middle" x="313" y="-193.1" font-family="Courier,monospace" font-size="11.00">LoaderInterface</text>
</a>
</g>
<!-- \\Module -->
<g id="node17" class="node"><title>\\Module</title>
<a xlink:href="Module.html" xlink:title="Module" target="_parent">
<polygon fill="none" stroke="black" points="544,-268 488,-268 488,-232 544,-232 544,-268"/>
<text text-anchor="middle" x="516" y="-247.1" font-family="Courier,monospace" font-size="11.00">Module</text>
</a>
</g>
<!-- \\Loader -->
<g id="node18" class="node"><title>\\Loader</title>
<a xlink:href="Loader.html" xlink:title="Loader" target="_parent">
<polygon fill="none" stroke="black" points="544,-214 488,-214 488,-178 544,-178 544,-214"/>
<text text-anchor="middle" x="516" y="-193.1" font-family="Courier,monospace" font-size="11.00">Loader</text>
</a>
</g>
<!-- \\Loader&#45;&gt;\\LoaderInterface -->
<g id="edge17" class="edge"><title>\\Loader&#45;&gt;\\LoaderInterface</title>
<path fill="none" stroke="black" stroke-dasharray="1,5" d="M487.346,-196C460.289,-196 418.637,-196 382.829,-196"/>
<polygon fill="none" stroke="black" points="382.415,-192.5 372.415,-196 382.415,-199.5 382.415,-192.5"/>
</g>
<!-- \\Error -->
<g id="node19" class="node"><title>\\Error</title>
<a xlink:href="Error.html" xlink:title="Error" target="_parent">
<polygon fill="none" stroke="black" points="543,-160 489,-160 489,-124 543,-124 543,-160"/>
<text text-anchor="middle" x="516" y="-139.1" font-family="Courier,monospace" font-size="11.00">Error</text>
</a>
</g>
<!-- \\ModelSQLManager&#45;&gt;\\ApplicationDB -->
<g id="edge7" class="edge"><title>\\ModelSQLManager&#45;&gt;\\ApplicationDB</title>
<path fill="none" stroke="black" d="M253.854,-566.871C222.274,-563.064 183.421,-558.381 151.367,-554.517"/>
<polygon fill="none" stroke="black" points="151.564,-551.016 141.217,-553.294 150.726,-557.966 151.564,-551.016"/>
</g>
<!-- \\ModelSQLManager&#45;&gt;\\SQLManagerInterface -->
<g id="edge19" class="edge"><title>\\ModelSQLManager&#45;&gt;\\SQLManagerInterface</title>
<path fill="none" stroke="black" stroke-dasharray="1,5" d="M253.854,-581.129C228.798,-584.149 199.163,-587.721 171.978,-590.998"/>
<polygon fill="none" stroke="black" points="171.203,-587.566 161.694,-592.238 172.041,-594.516 171.203,-587.566"/>
</g>
<!-- \\Component -->
<g id="node21" class="node"><title>\\Component</title>
<a xlink:href="Component.html" xlink:title="Component" target="_parent">
<polygon fill="none" stroke="black" points="554,-106 478,-106 478,-70 554,-70 554,-106"/>
<text text-anchor="middle" x="516" y="-85.1" font-family="Courier,monospace" font-size="11.00">Component</text>
</a>
</g>
<!-- \\Component&#45;&gt;\\Controller -->
<g id="edge9" class="edge"><title>\\Component&#45;&gt;\\Controller</title>
<path fill="none" stroke="black" d="M477.339,-88C445.51,-88 400.089,-88 365.062,-88"/>
<polygon fill="none" stroke="black" points="365.016,-84.5001 355.016,-88 365.016,-91.5001 365.016,-84.5001"/>
</g>
<!-- \\Logger -->
<g id="node22" class="node"><title>\\Logger</title>
<a xlink:href="Logger.html" xlink:title="Logger" target="_parent">
<polygon fill="none" stroke="black" points="544,-52 488,-52 488,-16 544,-16 544,-52"/>
<text text-anchor="middle" x="516" y="-31.1" font-family="Courier,monospace" font-size="11.00">Logger</text>
</a>
</g>
</g>
</svg>
