<?xml version="1.0" encoding="UTF-8" standalone="no"?>
<!DOCTYPE svg PUBLIC "-//W3C//DTD SVG 1.1//EN"
 "http://www.w3.org/Graphics/SVG/1.1/DTD/svg11.dtd">
<!-- Generated by graphviz version 2.26.3 (20100126.1600)
 -->
<!-- Title: G Pages: 1 -->
<svg width="592pt" height="584pt"
 viewBox="0.00 0.00 592.00 584.00" xmlns="http://www.w3.org/2000/svg" xmlns:xlink="http://www.w3.org/1999/xlink">
<g id="graph1" class="graph" transform="scale(1 1) rotate(0) translate(4 580)">
<title>G</title>
<polygon fill="white" stroke="white" points="-4,5 -4,-580 589,-580 589,5 -4,5"/>
<g id="graph2" class="cluster"><title>cluster_global</title>
<polyline fill="none" stroke="gray" points="20,-8 564,-8 "/>
<path fill="none" stroke="gray" d="M564,-8C570,-8 576,-14 576,-20"/>
<polyline fill="none" stroke="gray" points="576,-20 576,-556 "/>
<path fill="none" stroke="gray" d="M576,-556C576,-562 570,-568 564,-568"/>
<polyline fill="none" stroke="gray" points="564,-568 20,-568 "/>
<path fill="none" stroke="gray" d="M20,-568C14,-568 8,-562 8,-556"/>
<polyline fill="none" stroke="gray" points="8,-556 8,-20 "/>
<path fill="none" stroke="gray" d="M8,-20C8,-14 14,-8 20,-8"/>
<text text-anchor="middle" x="292" y="-554.1" font-family="Times Roman,serif" font-size="11.00" fill="gray">global</text>
</g>
<!-- \\Application -->
<g id="node2" class="node"><title>\\Application</title>
<a xlink:href="Application.html" xlink:title="Application" target="_parent">
<polygon fill="none" stroke="black" points="561,-538 471,-538 471,-502 561,-502 561,-538"/>
<text text-anchor="middle" x="516" y="-517.1" font-family="Courier,monospace" font-size="11.00">Application</text>
</a>
</g>
<!-- \\Configuration -->
<g id="node10" class="node"><title>\\Configuration</title>
<a xlink:href="Configuration.html" xlink:title="Configuration" target="_parent">
<polygon fill="none" stroke="black" points="365,-538 261,-538 261,-502 365,-502 365,-538"/>
<text text-anchor="middle" x="313" y="-517.1" font-family="Courier,monospace" font-size="11.00">Configuration</text>
</a>
</g>
<!-- \\Application&#45;&gt;\\Configuration -->
<g id="edge3" class="edge"><title>\\Application&#45;&gt;\\Configuration</title>
<path fill="none" stroke="black" d="M470.443,-520C442.401,-520 406.075,-520 375.383,-520"/>
<polygon fill="none" stroke="black" points="375.211,-516.5 365.211,-520 375.211,-523.5 375.211,-516.5"/>
</g>
<!-- \\Model -->
<g id="node3" class="node"><title>\\Model</title>
<a xlink:href="Model.html" xlink:title="Model" target="_parent">
<polygon fill="none" stroke="black" points="543,-484 489,-484 489,-448 543,-448 543,-484"/>
<text text-anchor="middle" x="516" y="-463.1" font-family="Courier,monospace" font-size="11.00">Model</text>
</a>
</g>
<!-- \\ModelSQLManager -->
<g id="node19" class="node"><title>\\ModelSQLManager</title>
<a xlink:href="ModelSQLManager.html" xlink:title="ModelSQLManager" target="_parent">
<polygon fill="none" stroke="black" points="372,-484 254,-484 254,-448 372,-448 372,-484"/>
<text text-anchor="middle" x="313" y="-463.1" font-family="Courier,monospace" font-size="11.00">ModelSQLManager</text>
</a>
</g>
<!-- \\Model&#45;&gt;\\ModelSQLManager -->
<g id="edge5" class="edge"><title>\\Model&#45;&gt;\\ModelSQLManager</title>
<path fill="none" stroke="black" d="M488.623,-466C461.518,-466 418.907,-466 382.446,-466"/>
<polygon fill="none" stroke="black" points="382.343,-462.5 372.343,-466 382.343,-469.5 382.343,-462.5"/>
</g>
<!-- \\ApplicationDB -->
<g id="node4" class="node"><title>\\ApplicationDB</title>
<a xlink:href="ApplicationDB.html" xlink:title="ApplicationDB" target="_parent">
<polygon fill="none" stroke="black" points="141,-457 37,-457 37,-421 141,-421 141,-457"/>
<text text-anchor="middle" x="89" y="-436.1" font-family="Courier,monospace" font-size="11.00">ApplicationDB</text>
</a>
</g>
<!-- \\Calendar -->
<g id="node5" class="node"><title>\\Calendar</title>
<a xlink:href="Calendar.html" xlink:title="Calendar" target="_parent">
<polygon fill="none" stroke="black" points="551,-430 481,-430 481,-394 551,-394 551,-430"/>
<text text-anchor="middle" x="516" y="-409.1" font-family="Courier,monospace" font-size="11.00">Calendar</text>
</a>
</g>
<!-- \\HTMLManager -->
<g id="node6" class="node"><title>\\HTMLManager</title>
<a xlink:href="HTMLManager.html" xlink:title="HTMLManager" target="_parent">
<polygon fill="none" stroke="black" points="561,-376 471,-376 471,-340 561,-340 561,-376"/>
<text text-anchor="middle" x="516" y="-355.1" font-family="Courier,monospace" font-size="11.00">HTMLManager</text>
</a>
</g>
<!-- \\HTMLInterface -->
<g id="node13" class="node"><title>\\HTMLInterface</title>
<a xlink:href="interfaces.HTMLInterface.html" xlink:title="HTMLInterface" target="_parent">
<polygon fill="none" stroke="black" points="365,-376 261,-376 261,-340 365,-340 365,-376"/>
<text text-anchor="middle" x="313" y="-355.1" font-family="Courier,monospace" font-size="11.00">HTMLInterface</text>
</a>
</g>
<!-- \\HTMLManager&#45;&gt;\\HTMLInterface -->
<g id="edge11" class="edge"><title>\\HTMLManager&#45;&gt;\\HTMLInterface</title>
<path fill="none" stroke="black" stroke-dasharray="1,5" d="M470.443,-358C442.401,-358 406.075,-358 375.383,-358"/>
<polygon fill="none" stroke="black" points="375.211,-354.5 365.211,-358 375.211,-361.5 375.211,-354.5"/>
</g>
<!-- \\PluginManager -->
<g id="node7" class="node"><title>\\PluginManager</title>
<a xlink:href="Plugin.html" xlink:title="PluginManager" target="_parent">
<polygon fill="none" stroke="black" points="568,-322 464,-322 464,-286 568,-286 568,-322"/>
<text text-anchor="middle" x="516" y="-301.1" font-family="Courier,monospace" font-size="11.00">PluginManager</text>
</a>
</g>
<!-- \\PluginManagerIterface -->
<g id="node12" class="node"><title>\\PluginManagerIterface</title>
<a xlink:href="interfaces.PluginManagerIterface.html" xlink:title="PluginManagerIterface" target="_parent">
<polygon fill="none" stroke="black" points="392,-322 234,-322 234,-286 392,-286 392,-322"/>
<text text-anchor="middle" x="313" y="-301.1" font-family="Courier,monospace" font-size="11.00">PluginManagerIterface</text>
</a>
</g>
<!-- \\PluginManager&#45;&gt;\\PluginManagerIterface -->
<g id="edge13" class="edge"><title>\\PluginManager&#45;&gt;\\PluginManagerIterface</title>
<path fill="none" stroke="black" stroke-dasharray="1,5" d="M463.986,-304C445.209,-304 423.44,-304 402.377,-304"/>
<polygon fill="none" stroke="black" points="402.111,-300.5 392.111,-304 402.111,-307.5 402.111,-300.5"/>
</g>
<!-- \\ValueCheck -->
<g id="node8" class="node"><title>\\ValueCheck</title>
<a xlink:href="ValueCheck.html" xlink:title="ValueCheck" target="_parent">
<polygon fill="none" stroke="black" points="558,-268 474,-268 474,-232 558,-232 558,-268"/>
<text text-anchor="middle" x="516" y="-247.1" font-family="Courier,monospace" font-size="11.00">ValueCheck</text>
</a>
</g>
<!-- \\Controller -->
<g id="node9" class="node"><title>\\Controller</title>
<a xlink:href="Controller.html" xlink:title="Controller" target="_parent">
<polygon fill="none" stroke="black" points="355,-52 271,-52 271,-16 355,-16 355,-52"/>
<text text-anchor="middle" x="313" y="-31.1" font-family="Courier,monospace" font-size="11.00">Controller</text>
</a>
</g>
<!-- \\FileManager -->
<g id="node11" class="node"><title>\\FileManager</title>
<a xlink:href="FileManager.html" xlink:title="FileManager" target="_parent">
<polygon fill="none" stroke="black" points="561,-214 471,-214 471,-178 561,-178 561,-214"/>
<text text-anchor="middle" x="516" y="-193.1" font-family="Courier,monospace" font-size="11.00">FileManager</text>
</a>
</g>
<!-- \\FileInterface -->
<g id="node16" class="node"><title>\\FileInterface</title>
<a xlink:href="interfaces.FileInterface.html" xlink:title="FileInterface" target="_parent">
<polygon fill="none" stroke="black" points="365,-214 261,-214 261,-178 365,-178 365,-214"/>
<text text-anchor="middle" x="313" y="-193.1" font-family="Courier,monospace" font-size="11.00">FileInterface</text>
</a>
</g>
<!-- \\FileManager&#45;&gt;\\FileInterface -->
<g id="edge15" class="edge"><title>\\FileManager&#45;&gt;\\FileInterface</title>
<path fill="none" stroke="black" stroke-dasharray="1,5" d="M470.443,-196C442.401,-196 406.075,-196 375.383,-196"/>
<polygon fill="none" stroke="black" points="375.211,-192.5 365.211,-196 375.211,-199.5 375.211,-192.5"/>
</g>
<!-- \\SQLManagerInterface -->
<g id="node14" class="node"><title>\\SQLManagerInterface</title>
<a xlink:href="interfaces.SQLManagerInterface.html" xlink:title="SQLManagerInterface" target="_parent">
<polygon fill="none" stroke="black" points="161,-511 17,-511 17,-475 161,-475 161,-511"/>
<text text-anchor="middle" x="89" y="-490.1" font-family="Courier,monospace" font-size="11.00">SQLManagerInterface</text>
</a>
</g>
<!-- \\LoaderInterface -->
<g id="node15" class="node"><title>\\LoaderInterface</title>
<a xlink:href="interfaces.LoaderInterface.html" xlink:title="LoaderInterface" target="_parent">
<polygon fill="none" stroke="black" points="372,-106 254,-106 254,-70 372,-70 372,-106"/>
<text text-anchor="middle" x="313" y="-85.1" font-family="Courier,monospace" font-size="11.00">LoaderInterface</text>
</a>
</g>
<!-- \\Module -->
<g id="node17" class="node"><title>\\Module</title>
<a xlink:href="Module.html" xlink:title="Module" target="_parent">
<polygon fill="none" stroke="black" points="544,-160 488,-160 488,-124 544,-124 544,-160"/>
<text text-anchor="middle" x="516" y="-139.1" font-family="Courier,monospace" font-size="11.00">Module</text>
</a>
</g>
<!-- \\Loader -->
<g id="node18" class="node"><title>\\Loader</title>
<a xlink:href="Loader.html" xlink:title="Loader" target="_parent">
<polygon fill="none" stroke="black" points="544,-106 488,-106 488,-70 544,-70 544,-106"/>
<text text-anchor="middle" x="516" y="-85.1" font-family="Courier,monospace" font-size="11.00">Loader</text>
</a>
</g>
<!-- \\Loader&#45;&gt;\\LoaderInterface -->
<g id="edge17" class="edge"><title>\\Loader&#45;&gt;\\LoaderInterface</title>
<path fill="none" stroke="black" stroke-dasharray="1,5" d="M487.346,-88C460.289,-88 418.637,-88 382.829,-88"/>
<polygon fill="none" stroke="black" points="382.415,-84.5001 372.415,-88 382.415,-91.5001 382.415,-84.5001"/>
</g>
<!-- \\ModelSQLManager&#45;&gt;\\ApplicationDB -->
<g id="edge7" class="edge"><title>\\ModelSQLManager&#45;&gt;\\ApplicationDB</title>
<path fill="none" stroke="black" d="M253.854,-458.871C222.274,-455.064 183.421,-450.381 151.367,-446.517"/>
<polygon fill="none" stroke="black" points="151.564,-443.016 141.217,-445.294 150.726,-449.966 151.564,-443.016"/>
</g>
<!-- \\ModelSQLManager&#45;&gt;\\SQLManagerInterface -->
<g id="edge19" class="edge"><title>\\ModelSQLManager&#45;&gt;\\SQLManagerInterface</title>
<path fill="none" stroke="black" stroke-dasharray="1,5" d="M253.854,-473.129C228.798,-476.149 199.163,-479.721 171.978,-482.998"/>
<polygon fill="none" stroke="black" points="171.203,-479.566 161.694,-484.238 172.041,-486.516 171.203,-479.566"/>
</g>
<!-- \\Component -->
<g id="node20" class="node"><title>\\Component</title>
<a xlink:href="Component.html" xlink:title="Component" target="_parent">
<polygon fill="none" stroke="black" points="554,-52 478,-52 478,-16 554,-16 554,-52"/>
<text text-anchor="middle" x="516" y="-31.1" font-family="Courier,monospace" font-size="11.00">Component</text>
</a>
</g>
<!-- \\Component&#45;&gt;\\Controller -->
<g id="edge9" class="edge"><title>\\Component&#45;&gt;\\Controller</title>
<path fill="none" stroke="black" d="M477.339,-34C445.51,-34 400.089,-34 365.062,-34"/>
<polygon fill="none" stroke="black" points="365.016,-30.5001 355.016,-34 365.016,-37.5001 365.016,-30.5001"/>
</g>
</g>
</svg>
