<?xml version="1.0" encoding="UTF-8" standalone="no"?>
<!DOCTYPE svg PUBLIC "-//W3C//DTD SVG 1.1//EN"
 "http://www.w3.org/Graphics/SVG/1.1/DTD/svg11.dtd">
<!-- Generated by graphviz version 2.26.3 (20100126.1600)
 -->
<!-- Title: G Pages: 1 -->
<svg width="552pt" height="746pt"
 viewBox="0.00 0.00 552.00 746.00" xmlns="http://www.w3.org/2000/svg" xmlns:xlink="http://www.w3.org/1999/xlink">
<g id="graph1" class="graph" transform="scale(1 1) rotate(0) translate(4 742)">
<title>G</title>
<polygon fill="white" stroke="white" points="-4,5 -4,-742 549,-742 549,5 -4,5"/>
<g id="graph2" class="cluster"><title>cluster_global</title>
<polyline fill="none" stroke="gray" points="20,-8 524,-8 "/>
<path fill="none" stroke="gray" d="M524,-8C530,-8 536,-14 536,-20"/>
<polyline fill="none" stroke="gray" points="536,-20 536,-718 "/>
<path fill="none" stroke="gray" d="M536,-718C536,-724 530,-730 524,-730"/>
<polyline fill="none" stroke="gray" points="524,-730 20,-730 "/>
<path fill="none" stroke="gray" d="M20,-730C14,-730 8,-724 8,-718"/>
<polyline fill="none" stroke="gray" points="8,-718 8,-20 "/>
<path fill="none" stroke="gray" d="M8,-20C8,-14 14,-8 20,-8"/>
<text text-anchor="middle" x="272" y="-716.1" font-family="Times Roman,serif" font-size="11.00" fill="gray">global</text>
</g>
<!-- \\PluginManager -->
<g id="node2" class="node"><title>\\PluginManager</title>
<a xlink:href="PluginManager.html" xlink:title="PluginManager" target="_parent">
<polygon fill="none" stroke="black" points="528,-700 424,-700 424,-664 528,-664 528,-700"/>
<text text-anchor="middle" x="476" y="-679.1" font-family="Courier,monospace" font-size="11.00">PluginManager</text>
</a>
</g>
<!-- \\Application -->
<g id="node3" class="node"><title>\\Application</title>
<a xlink:href="Application.html" xlink:title="Application" target="_parent">
<polygon fill="none" stroke="black" points="521,-646 431,-646 431,-610 521,-610 521,-646"/>
<text text-anchor="middle" x="476" y="-625.1" font-family="Courier,monospace" font-size="11.00">Application</text>
</a>
</g>
<!-- \\Configuration -->
<g id="node11" class="node"><title>\\Configuration</title>
<a xlink:href="Configuration.html" xlink:title="Configuration" target="_parent">
<polygon fill="none" stroke="black" points="345,-646 241,-646 241,-610 345,-610 345,-646"/>
<text text-anchor="middle" x="293" y="-625.1" font-family="Courier,monospace" font-size="11.00">Configuration</text>
</a>
</g>
<!-- \\Application&#45;&gt;\\Configuration -->
<g id="edge3" class="edge"><title>\\Application&#45;&gt;\\Configuration</title>
<path fill="none" stroke="black" d="M430.293,-628C407.691,-628 380.066,-628 355.537,-628"/>
<polygon fill="none" stroke="black" points="355.238,-624.5 345.238,-628 355.238,-631.5 355.238,-624.5"/>
</g>
<!-- \\Model -->
<g id="node4" class="node"><title>\\Model</title>
<a xlink:href="Model.html" xlink:title="Model" target="_parent">
<polygon fill="none" stroke="black" points="503,-592 449,-592 449,-556 503,-556 503,-592"/>
<text text-anchor="middle" x="476" y="-571.1" font-family="Courier,monospace" font-size="11.00">Model</text>
</a>
</g>
<!-- \\ModelSQLManager -->
<g id="node20" class="node"><title>\\ModelSQLManager</title>
<a xlink:href="ModelSQLManager.html" xlink:title="ModelSQLManager" target="_parent">
<polygon fill="none" stroke="black" points="352,-592 234,-592 234,-556 352,-556 352,-592"/>
<text text-anchor="middle" x="293" y="-571.1" font-family="Courier,monospace" font-size="11.00">ModelSQLManager</text>
</a>
</g>
<!-- \\Model&#45;&gt;\\ModelSQLManager -->
<g id="edge5" class="edge"><title>\\Model&#45;&gt;\\ModelSQLManager</title>
<path fill="none" stroke="black" d="M448.998,-574C426.22,-574 392.592,-574 362.385,-574"/>
<polygon fill="none" stroke="black" points="362.292,-570.5 352.292,-574 362.292,-577.5 362.292,-570.5"/>
</g>
<!-- \\ApplicationDB -->
<g id="node5" class="node"><title>\\ApplicationDB</title>
<a xlink:href="ApplicationDB.html" xlink:title="ApplicationDB" target="_parent">
<polygon fill="none" stroke="black" points="141,-565 37,-565 37,-529 141,-529 141,-565"/>
<text text-anchor="middle" x="89" y="-544.1" font-family="Courier,monospace" font-size="11.00">ApplicationDB</text>
</a>
</g>
<!-- \\Calendar -->
<g id="node6" class="node"><title>\\Calendar</title>
<a xlink:href="Calendar.html" xlink:title="Calendar" target="_parent">
<polygon fill="none" stroke="black" points="511,-538 441,-538 441,-502 511,-502 511,-538"/>
<text text-anchor="middle" x="476" y="-517.1" font-family="Courier,monospace" font-size="11.00">Calendar</text>
</a>
</g>
<!-- \\HTMLManager -->
<g id="node7" class="node"><title>\\HTMLManager</title>
<a xlink:href="HTMLManager.html" xlink:title="HTMLManager" target="_parent">
<polygon fill="none" stroke="black" points="521,-484 431,-484 431,-448 521,-448 521,-484"/>
<text text-anchor="middle" x="476" y="-463.1" font-family="Courier,monospace" font-size="11.00">HTMLManager</text>
</a>
</g>
<!-- \\HTMLInterface -->
<g id="node13" class="node"><title>\\HTMLInterface</title>
<a xlink:href="interfaces.HTMLInterface.html" xlink:title="HTMLInterface" target="_parent">
<polygon fill="none" stroke="black" points="345,-484 241,-484 241,-448 345,-448 345,-484"/>
<text text-anchor="middle" x="293" y="-463.1" font-family="Courier,monospace" font-size="11.00">HTMLInterface</text>
</a>
</g>
<!-- \\HTMLManager&#45;&gt;\\HTMLInterface -->
<g id="edge11" class="edge"><title>\\HTMLManager&#45;&gt;\\HTMLInterface</title>
<path fill="none" stroke="black" stroke-dasharray="1,5" d="M430.293,-466C407.691,-466 380.066,-466 355.537,-466"/>
<polygon fill="none" stroke="black" points="355.238,-462.5 345.238,-466 355.238,-469.5 355.238,-462.5"/>
</g>
<!-- \\Plugin -->
<g id="node8" class="node"><title>\\Plugin</title>
<a xlink:href="Plugin.html" xlink:title="Plugin" target="_parent">
<polygon fill="none" stroke="black" points="504,-430 448,-430 448,-394 504,-394 504,-430"/>
<text text-anchor="middle" x="476" y="-409.1" font-family="Courier,monospace" font-size="11.00">Plugin</text>
</a>
</g>
<!-- \\ValueCheck -->
<g id="node9" class="node"><title>\\ValueCheck</title>
<a xlink:href="ValueCheck.html" xlink:title="ValueCheck" target="_parent">
<polygon fill="none" stroke="black" points="518,-376 434,-376 434,-340 518,-340 518,-376"/>
<text text-anchor="middle" x="476" y="-355.1" font-family="Courier,monospace" font-size="11.00">ValueCheck</text>
</a>
</g>
<!-- \\Controller -->
<g id="node10" class="node"><title>\\Controller</title>
<a xlink:href="Controller.html" xlink:title="Controller" target="_parent">
<polygon fill="none" stroke="black" points="335,-106 251,-106 251,-70 335,-70 335,-106"/>
<text text-anchor="middle" x="293" y="-85.1" font-family="Courier,monospace" font-size="11.00">Controller</text>
</a>
</g>
<!-- \\FileManager -->
<g id="node12" class="node"><title>\\FileManager</title>
<a xlink:href="FileManager.html" xlink:title="FileManager" target="_parent">
<polygon fill="none" stroke="black" points="521,-322 431,-322 431,-286 521,-286 521,-322"/>
<text text-anchor="middle" x="476" y="-301.1" font-family="Courier,monospace" font-size="11.00">FileManager</text>
</a>
</g>
<!-- \\FileInterface -->
<g id="node16" class="node"><title>\\FileInterface</title>
<a xlink:href="interfaces.FileInterface.html" xlink:title="FileInterface" target="_parent">
<polygon fill="none" stroke="black" points="345,-322 241,-322 241,-286 345,-286 345,-322"/>
<text text-anchor="middle" x="293" y="-301.1" font-family="Courier,monospace" font-size="11.00">FileInterface</text>
</a>
</g>
<!-- \\FileManager&#45;&gt;\\FileInterface -->
<g id="edge13" class="edge"><title>\\FileManager&#45;&gt;\\FileInterface</title>
<path fill="none" stroke="black" stroke-dasharray="1,5" d="M430.293,-304C407.691,-304 380.066,-304 355.537,-304"/>
<polygon fill="none" stroke="black" points="355.238,-300.5 345.238,-304 355.238,-307.5 355.238,-300.5"/>
</g>
<!-- \\SQLManagerInterface -->
<g id="node14" class="node"><title>\\SQLManagerInterface</title>
<a xlink:href="interfaces.SQLManagerInterface.html" xlink:title="SQLManagerInterface" target="_parent">
<polygon fill="none" stroke="black" points="161,-619 17,-619 17,-583 161,-583 161,-619"/>
<text text-anchor="middle" x="89" y="-598.1" font-family="Courier,monospace" font-size="11.00">SQLManagerInterface</text>
</a>
</g>
<!-- \\LoaderInterface -->
<g id="node15" class="node"><title>\\LoaderInterface</title>
<a xlink:href="interfaces.LoaderInterface.html" xlink:title="LoaderInterface" target="_parent">
<polygon fill="none" stroke="black" points="352,-214 234,-214 234,-178 352,-178 352,-214"/>
<text text-anchor="middle" x="293" y="-193.1" font-family="Courier,monospace" font-size="11.00">LoaderInterface</text>
</a>
</g>
<!-- \\Module -->
<g id="node17" class="node"><title>\\Module</title>
<a xlink:href="Module.html" xlink:title="Module" target="_parent">
<polygon fill="none" stroke="black" points="504,-268 448,-268 448,-232 504,-232 504,-268"/>
<text text-anchor="middle" x="476" y="-247.1" font-family="Courier,monospace" font-size="11.00">Module</text>
</a>
</g>
<!-- \\Loader -->
<g id="node18" class="node"><title>\\Loader</title>
<a xlink:href="Loader.html" xlink:title="Loader" target="_parent">
<polygon fill="none" stroke="black" points="504,-214 448,-214 448,-178 504,-178 504,-214"/>
<text text-anchor="middle" x="476" y="-193.1" font-family="Courier,monospace" font-size="11.00">Loader</text>
</a>
</g>
<!-- \\Loader&#45;&gt;\\LoaderInterface -->
<g id="edge15" class="edge"><title>\\Loader&#45;&gt;\\LoaderInterface</title>
<path fill="none" stroke="black" stroke-dasharray="1,5" d="M447.406,-196C424.656,-196 391.849,-196 362.322,-196"/>
<polygon fill="none" stroke="black" points="362.036,-192.5 352.036,-196 362.036,-199.5 362.036,-192.5"/>
</g>
<!-- \\Error -->
<g id="node19" class="node"><title>\\Error</title>
<a xlink:href="Error.html" xlink:title="Error" target="_parent">
<polygon fill="none" stroke="black" points="503,-160 449,-160 449,-124 503,-124 503,-160"/>
<text text-anchor="middle" x="476" y="-139.1" font-family="Courier,monospace" font-size="11.00">Error</text>
</a>
</g>
<!-- \\ModelSQLManager&#45;&gt;\\ApplicationDB -->
<g id="edge7" class="edge"><title>\\ModelSQLManager&#45;&gt;\\ApplicationDB</title>
<path fill="none" stroke="black" d="M233.995,-566.19C208.128,-562.767 177.745,-558.746 151.492,-555.271"/>
<polygon fill="none" stroke="black" points="151.649,-551.761 141.276,-553.919 150.731,-558.701 151.649,-551.761"/>
</g>
<!-- \\ModelSQLManager&#45;&gt;\\SQLManagerInterface -->
<g id="edge17" class="edge"><title>\\ModelSQLManager&#45;&gt;\\SQLManagerInterface</title>
<path fill="none" stroke="black" stroke-dasharray="1,5" d="M233.995,-581.81C214.579,-584.379 192.618,-587.286 171.77,-590.045"/>
<polygon fill="none" stroke="black" points="171.095,-586.604 161.641,-591.386 172.014,-593.543 171.095,-586.604"/>
</g>
<!-- \\Component -->
<g id="node21" class="node"><title>\\Component</title>
<a xlink:href="Component.html" xlink:title="Component" target="_parent">
<polygon fill="none" stroke="black" points="514,-106 438,-106 438,-70 514,-70 514,-106"/>
<text text-anchor="middle" x="476" y="-85.1" font-family="Courier,monospace" font-size="11.00">Component</text>
</a>
</g>
<!-- \\Component&#45;&gt;\\Controller -->
<g id="edge9" class="edge"><title>\\Component&#45;&gt;\\Controller</title>
<path fill="none" stroke="black" d="M437.19,-88C410.442,-88 374.582,-88 345.315,-88"/>
<polygon fill="none" stroke="black" points="345.264,-84.5001 335.264,-88 345.264,-91.5001 345.264,-84.5001"/>
</g>
<!-- \\Logger -->
<g id="node22" class="node"><title>\\Logger</title>
<a xlink:href="Logger.html" xlink:title="Logger" target="_parent">
<polygon fill="none" stroke="black" points="504,-52 448,-52 448,-16 504,-16 504,-52"/>
<text text-anchor="middle" x="476" y="-31.1" font-family="Courier,monospace" font-size="11.00">Logger</text>
</a>
</g>
</g>
</svg>
